<?xml version="1.0" encoding="utf-8"?>
<!-- Generator: Adobe Illustrator 22.1.0, SVG Export Plug-In . SVG Version: 6.00 Build 0)  -->
<svg version="1.1" xmlns="http://www.w3.org/2000/svg" xmlns:xlink="http://www.w3.org/1999/xlink" x="0px" y="0px"
	 viewBox="0 0 500 500" style="enable-background:new 0 0 500 500;" xml:space="preserve">
<g id="Layer_2">
	<rect width="500" height="500"/>
</g>
<g id="Layer_1">
	<path style="fill:#575757;" d="M0,222c0.6,0.9,1.7,1.7,1.7,2.6c0.1,6.4,0.1,12.9,0.1,20c5.9,0,11.5,0,18.3,0
		C13,256.4,6.5,267.2,0,278C0,259.3,0,240.7,0,222z"/>
	<path style="fill:#575757;" d="M267,0c-5.5,9.8-11.1,19.5-16.6,29.3c-0.3,0-0.7-0.1-1-0.1c0-7.4,0-14.8,0-22.6
		c-6.1,0-11.5,0-18.2,0c1.6-2.8,2.7-4.6,3.8-6.5C245.7,0,256.3,0,267,0z"/>
	<path style="fill:#575757;" d="M501,280c-0.6-0.9-1.7-1.7-1.8-2.6c-0.2-6.5-0.1-12.9-0.1-19.9c-5.9,0-11.3,0-17.9,0
		c1.5-2.8,2.5-4.8,3.7-6.7c5.3-8.9,10.7-17.9,16-26.8C501,242.7,501,261.3,501,280z"/>
	<path style="fill:#575757;" d="M235,500c5.5-9.8,11-19.5,16.5-29.3c0.3,0,0.7,0.1,1,0.1c0,7.4,0,14.8,0,22.6c6.1,0,11.5,0,18.2,0
		c-1.6,2.8-2.7,4.7-3.8,6.6C256.3,500,245.7,500,235,500z"/>
	<path style="fill:#575757;" d="M16,0C10.7,9,5.3,18,0,27C0,18,0,9,0,0C5.3,0,10.7,0,16,0z"/>
	<path style="fill:#575757;" d="M0,472c0.6,0.9,1.7,1.7,1.7,2.6c0.2,6.5,0.1,12.9,0.1,19.8c5.9,0,11.4,0,18,0
		c-1.6,2.7-2.7,4.6-3.8,6.6c-5.3,0-10.7,0-16,0C0,491.3,0,481.7,0,472z"/>
	<path style="fill:#575757;" d="M500,29c-0.6-0.9-1.7-1.7-1.8-2.6c-0.2-6.5-0.1-12.9-0.1-19.9c-5.8,0-11.2,0-17.9,0
		c1.6-2.8,2.7-4.7,3.7-6.5c5.3,0,10.7,0,16,0C500,9.7,500,19.3,500,29z"/>
	<path style="fill:#575757;" d="M377.9,346.9c0,7.4,0,14.8,0,22.6c5.9,0,11.4,0,17.9,0c-7.1,12.5-13.8,24.2-20.5,35.9
		c-0.3-0.1-0.6-0.1-0.9-0.2c0-7.3,0-14.7,0-22.7c-6,0-11.6,0-18.2,0c7.2-12.6,13.8-24.2,20.4-35.8
		C377,346.8,377.4,346.8,377.9,346.9z"/>
	<path style="fill:#575757;" d="M106.2,132.5c7.2-12.6,13.8-24.2,20.4-35.7c0.3,0,0.7,0.1,1,0.1c0,7.4,0,14.8,0,22.7
		c6.1,0,11.6,0,18.2,0c-7.2,12.6-13.8,24.2-20.5,35.9c-0.3-0.1-0.7-0.1-1-0.2c0-7.3,0-14.7,0-22.7
		C118.3,132.5,112.8,132.5,106.2,132.5z"/>
	<path style="fill:#575757;" d="M374.2,132.5c-6,0-11.4,0-18,0c7.2-12.6,13.8-24.2,20.5-35.9c0.4,0.1,0.7,0.2,1.1,0.3
		c0,7.4,0,14.7,0,22.6c6,0,11.4,0,18,0c-7.2,12.6-13.8,24.2-20.5,35.9c-0.4-0.1-0.7-0.2-1.1-0.3
		C374.2,147.7,374.2,140.4,374.2,132.5z"/>
	<path style="fill:#575757;" d="M124.3,382.4c-6.2,0-11.5,0-18.1,0c7.1-12.5,13.8-24.1,20.4-35.8c0.3,0.1,0.7,0.2,1,0.2
		c0,7.4,0,14.7,0,22.6c6,0,11.4,0,18.1,0c-7.2,12.6-13.8,24.3-20.5,35.9c-0.3-0.1-0.7-0.2-1-0.2
		C124.3,397.8,124.3,390.4,124.3,382.4z"/>
	<path style="fill:#575757;" d="M270.5,245.1c-6.9,12-13.6,23.7-20.3,35.4c-0.3-0.1-0.7-0.1-1-0.2c0-7.5,0-14.9,0-22.9
		c-6,0-11.5,0-17.7,0c7-12.4,13.6-24.1,20.2-35.8c0.4,0.1,0.9,0.2,1.3,0.3c-0.3,4.3-0.1,23.2-0.1,23.2L270.5,245.1z"/>
	<path style="fill:#575757;" d="M500,500h-15.4c0,0,10.5-17.5,15.4-26"/>
</g>
</svg>
